<?xml version="1.0" encoding="utf-8"?>
<!-- Generator: Adobe Illustrator 27.5.0, SVG Export Plug-In . SVG Version: 6.00 Build 0)  -->
<svg version="1.1" id="Layer_1" xmlns="http://www.w3.org/2000/svg" xmlns:xlink="http://www.w3.org/1999/xlink" x="0px" y="0px"
	 viewBox="0 0 364.623 243.263" style="enable-background:new 0 0 364.623 243.263;" xml:space="preserve">
<g>
	<g>
		<path style="fill:#353738;" d="M125.103,126.251L125.103,126.251c-2.657,1.229-5.836,0.06-7.065-2.597l-12.361-26.728
			c-1.229-2.657-0.06-5.836,2.597-7.065l0,0c2.657-1.229,5.836-0.06,7.064,2.597l12.361,26.728
			C128.928,121.843,127.76,125.023,125.103,126.251z"/>
		<path style="opacity:0.45;fill:#B1B3B6;" d="M119.391,114.617L119.391,114.617c-1.327,0.506-2.827-0.165-3.334-1.493
			l-6.068-15.905c-0.506-1.327,0.165-2.827,1.492-3.334l0,0c1.327-0.506,2.828,0.165,3.334,1.493l6.068,15.905
			C121.39,112.61,120.718,114.11,119.391,114.617z"/>
	</g>
	<g>
		<g>
			<g>
				<g>
					<g>
						<path style="fill:#9B9DA0;" d="M166.272,33.237V8.685c-0.37-0.01-0.734-0.021-1.112-0.028
							c-1.15-0.022-2.288-0.006-3.311,0.023v24.539C163.05,33.273,164.835,33.275,166.272,33.237z"/>
						<path style="fill:#797A7D;" d="M166.388,33.25l0.15-0.004V8.676l-0.387-0.011c-0.291-0.008-0.591-0.016-0.903-0.022
							c-1.075-0.02-2.262-0.012-3.523,0.024l-0.141,0.004v24.554l0.096,0.004c0.693,0.031,1.579,0.048,2.565,0.048
							C164.976,33.277,165.717,33.268,166.388,33.25z M162.114,8.689c1.074-0.029,2.062-0.035,2.959-0.019
							c0.278,0.005,0.549,0.013,0.837,0.021l0.097,0.003v24.535c-0.559,0.013-1.165,0.02-1.762,0.02
							c-0.815,0-1.549-0.013-2.13-0.037V8.689z"/>
					</g>
					<g style="opacity:0.6;">
						<path style="fill:#797A7D;" d="M165.16,8.657c-0.445-0.008-0.888-0.011-1.324-0.01c0.134,0.001,0.268,0.004,0.404,0.01
							c0.164,0.007,0.321,0.018,0.481,0.028v24.471c-0.622,0.038-1.394,0.035-1.915-0.018V8.68c0.232-0.015,0.477-0.027,0.73-0.031
							c-0.584,0.004-1.152,0.016-1.688,0.031v24.539c1.201,0.054,2.986,0.056,4.423,0.019V8.685
							C165.902,8.675,165.538,8.664,165.16,8.657z"/>
						<path style="fill:#797A7D;" d="M163.536,8.649c0.1-0.001,0.199-0.002,0.3-0.002C163.736,8.646,163.635,8.647,163.536,8.649z"
							/>
					</g>
					<path style="opacity:0.8;fill:#FFFFFF;" d="M163.53,33.133c-0.147,0-0.265-0.006-0.265-0.014l0.006-24.378
						c0-0.008,0.119-0.014,0.265-0.014c0.147,0,0.265,0.006,0.265,0.014l-0.006,24.378C163.796,33.127,163.677,33.133,163.53,33.133
						z"/>
				</g>
				<g>
					<g>
						<path style="fill:#9B9DA0;" d="M227.236,33.237V8.685c-0.37-0.01-0.734-0.021-1.112-0.028
							c-1.15-0.022-2.288-0.006-3.312,0.023v24.539C224.014,33.273,225.799,33.275,227.236,33.237z"/>
						<path style="fill:#797A7D;" d="M227.352,33.25l0.15-0.004V8.676l-0.387-0.011c-0.291-0.008-0.591-0.016-0.903-0.022
							c-1.075-0.02-2.262-0.012-3.523,0.024l-0.141,0.004v24.554l0.096,0.004c0.692,0.031,1.579,0.048,2.565,0.048
							C225.94,33.277,226.681,33.268,227.352,33.25z M223.078,8.689c1.074-0.029,2.062-0.035,2.959-0.019
							c0.278,0.005,0.549,0.013,0.837,0.021l0.096,0.003v24.535c-0.559,0.013-1.165,0.02-1.762,0.02
							c-0.815,0-1.549-0.013-2.13-0.037V8.689z"/>
					</g>
					<g style="opacity:0.6;">
						<path style="fill:#797A7D;" d="M226.124,8.657c-0.445-0.008-0.889-0.011-1.324-0.01c0.134,0.001,0.268,0.004,0.404,0.01
							c0.164,0.007,0.321,0.018,0.481,0.028v24.471c-0.622,0.038-1.394,0.035-1.915-0.018V8.68c0.232-0.015,0.477-0.027,0.73-0.031
							c-0.584,0.004-1.152,0.016-1.688,0.031v24.539c1.201,0.054,2.986,0.056,4.423,0.019V8.685
							C226.866,8.675,226.502,8.664,226.124,8.657z"/>
						<path style="fill:#797A7D;" d="M224.5,8.649c0.099-0.001,0.199-0.002,0.299-0.002C224.699,8.646,224.599,8.647,224.5,8.649z"
							/>
					</g>
					<path style="opacity:0.8;fill:#FFFFFF;" d="M224.494,33.133c-0.147,0-0.265-0.006-0.265-0.014l0.006-24.378
						c0-0.008,0.119-0.014,0.265-0.014s0.265,0.006,0.265,0.014l-0.006,24.378C224.76,33.127,224.641,33.133,224.494,33.133z"/>
				</g>
			</g>
			<g>
				<g>
					<path style="fill:#9B9DA0;" d="M257.609,29.57c-0.148-3.441-0.42-6.815-0.896-10.254c-0.243-1.718-0.528-3.44-0.965-5.208
						c-0.222-0.886-0.472-1.78-0.812-2.709c-0.043-0.118-0.074-0.223-0.127-0.351l-0.191-0.409l-0.399-0.811
						c-0.292-0.524-0.669-1.007-1.03-1.485c-1.591-1.828-3.639-2.87-5.568-3.488c-1.957-0.59-3.855-0.836-5.803-0.852L231.81,4.016
						H191.8l-40.01,0h-5.001h-1.25l-0.633,0.002l-0.846,0.072l-0.844,0.089l-0.819,0.191c-0.272,0.07-0.547,0.128-0.813,0.214
						l-0.785,0.304c-2.089,0.846-3.824,2.284-5.093,3.878c-0.664,0.791-1.191,1.641-1.686,2.502
						c-0.485,0.88-0.883,1.733-1.239,2.757l-5.381,19.434c0.458,0.194,0.907,0.392,1.38,0.57c1.44,0.544,2.93,0.851,4.296,1.029
						l5.281-19.117c0.185-0.539,0.483-1.213,0.807-1.788c0.333-0.582,0.685-1.157,1.097-1.642c0.799-1.012,1.737-1.749,2.741-2.155
						l0.378-0.153c0.125-0.054,0.265-0.063,0.395-0.1l0.395-0.102c0.133-0.021,0.267-0.021,0.399-0.036l0.398-0.047
						c0.156-0.013,0.402-0.004,0.598-0.007h1.249l4.994,0l39.955,0l39.955,0l10.002-0.013c1.375-0.002,2.82,0.192,4.061,0.559
						c1.244,0.379,2.248,0.971,2.872,1.665c0.156,0.177,0.265,0.375,0.411,0.554c0.044,0.108,0.092,0.212,0.144,0.315
						c0.051,0.121,0.11,0.162,0.165,0.356c0.107,0.334,0.233,0.641,0.332,0.995c0.096,0.358,0.203,0.704,0.293,1.07
						c0.369,1.463,0.632,3.034,0.86,4.61c0.446,3.16,0.713,6.433,0.854,9.654C253.325,29.948,255.704,29.901,257.609,29.57z"/>
					<path style="fill:#797A7D;" d="M257.767,29.652l0.199-0.034c-0.147-3.46-0.419-6.84-0.894-10.298
						c-0.242-1.727-0.529-3.459-0.968-5.246c-0.223-0.895-0.472-1.799-0.817-2.746l-0.123-0.351l-0.193-0.422l-0.413-0.842
						c-0.287-0.553-0.691-1.045-1.056-1.552c-1.64-1.911-3.754-2.99-5.726-3.627c-2.002-0.614-3.932-0.862-5.912-0.885
						l-10.025,0.013h-40.041l-40.041,0h-5.005l-1.251,0c-0.219,0.003-0.395-0.006-0.648,0.006l-0.873,0.075
						c-0.29,0.03-0.583,0.055-0.87,0.098l-0.845,0.198c-0.28,0.074-0.565,0.128-0.837,0.227l-0.81,0.314
						c-2.155,0.88-3.924,2.371-5.217,4.003c-0.675,0.812-1.214,1.678-1.713,2.56c-0.495,0.9-0.893,1.762-1.261,2.828l-5.382,19.451
						l0.479,0.203c0.36,0.153,0.731,0.312,1.123,0.46c1.347,0.508,2.887,0.879,4.57,1.099l0.188,0.025l5.288-19.146
						c0.06-0.191,0.207-0.546,0.328-0.827c0.137-0.298,0.281-0.594,0.44-0.881c0.32-0.568,0.664-1.126,1.059-1.596
						c0.77-0.979,1.659-1.687,2.599-2.066c0.237-0.092,0.468-0.205,0.723-0.24l0.37-0.095c0.124-0.03,0.249-0.02,0.373-0.037
						l0.372-0.044c0.044-0.013,0.168-0.009,0.269-0.009h0.312h1.249h4.997l39.978,0l39.978,0l10.004-0.013
						c1.344,0,2.76,0.193,3.957,0.55c1.199,0.371,2.139,0.937,2.701,1.566c0.132,0.167,0.241,0.337,0.365,0.504
						c0.039,0.098,0.082,0.193,0.129,0.285c0.047,0.102,0.101,0.15,0.155,0.341c0.227,0.619,0.428,1.312,0.611,2.031
						c0.364,1.446,0.625,3.01,0.851,4.579c0.442,3.146,0.708,6.416,0.847,9.624l0.129,0.021c0.931,0.157,2.115,0.215,3.429,0.178
						C255.892,29.906,256.878,29.809,257.767,29.652z M132.75,34.911c-1.431-0.198-2.712-0.511-3.835-0.935
						c-0.349-0.132-0.684-0.275-1.04-0.427l-0.119-0.051l5.378-19.411c0.687-1.911,1.606-3.556,2.876-5.134
						c1.243-1.557,2.942-2.942,4.966-3.754l0.76-0.294c0.261-0.074,0.526-0.136,0.789-0.201c0.265-0.062,0.528-0.13,0.795-0.18
						l0.817-0.085l0.815-0.069h0.625h1.249h4.997l39.979,0l39.979,0l9.994-0.013c1.915,0.011,3.783,0.252,5.695,0.82
						c1.886,0.597,3.87,1.603,5.409,3.351c0.359,0.447,0.707,0.924,1.005,1.418l0.385,0.779c0.126,0.261,0.258,0.536,0.319,0.746
						c0.334,0.911,0.584,1.795,0.806,2.671c0.436,1.75,0.718,3.461,0.963,5.17c0.477,3.42,0.749,6.787,0.898,10.21
						c-0.741,0.119-1.546,0.195-2.342,0.225c-1.086,0.04-2.067-0.006-2.848-0.124c-0.143-3.233-0.411-6.509-0.861-9.683
						c-0.229-1.584-0.496-3.16-0.868-4.641l-0.299-1.084c-0.103-0.356-0.23-0.675-0.34-1.015c-0.119-0.296-0.236-0.467-0.333-0.718
						c-0.167-0.192-0.276-0.417-0.457-0.604c-0.687-0.757-1.755-1.376-3.044-1.762c-1.284-0.379-2.756-0.572-4.164-0.569
						l-9.999,0.013l-39.932,0l-39.932,0h-4.992h-1.248l-0.612,0.003l-0.425,0.049l-0.426,0.036l-0.42,0.108
						c-0.139,0.037-0.284,0.056-0.421,0.103l-0.402,0.163c-1.068,0.431-2.058,1.199-2.885,2.243c-0.429,0.5-0.79,1.093-1.136,1.688
						c-0.333,0.594-0.639,1.272-0.839,1.85L132.75,34.911z"/>
				</g>
				<g style="opacity:0.6;">
					<path style="fill:#797A7D;" d="M128.779,34.031c0.558,0.211,1.123,0.385,1.685,0.531c-0.17-0.053-0.338-0.119-0.502-0.204
						c-0.198-0.103-0.381-0.227-0.57-0.346l5.321-19.25c0.592-1.698,1.431-3.224,2.54-4.621c1.095-1.388,2.522-2.595,4.223-3.298
						c0.426-0.169,0.848-0.352,1.3-0.437c0.444-0.115,0.889-0.223,1.351-0.245c0.955-0.125,1.722-0.06,2.569-0.077h4.983h39.866
						l39.867,0l9.94-0.008c1.759-0.032,3.483,0.157,5.191,0.625c1.693,0.457,3.391,1.258,4.704,2.608
						c0.674,0.65,1.174,1.475,1.556,2.329c0.35,0.835,0.588,1.652,0.812,2.483c0.43,1.656,0.727,3.319,0.977,4.983
						c0.488,3.33,0.761,6.662,0.925,10.008c-0.817,0.285-1.847,0.307-2.556-0.003c-0.163-3.262-0.438-6.54-0.911-9.744
						c-0.242-1.599-0.533-3.185-0.932-4.695c-0.2-0.737-0.433-1.521-0.706-2.115c-0.144-0.274-0.246-0.573-0.453-0.807l-0.265-0.38
						l-0.333-0.335c-0.429-0.461-1.003-0.815-1.594-1.15c-0.628-0.293-1.282-0.57-1.998-0.745c-1.4-0.381-2.976-0.544-4.431-0.506
						l-10.022,0.007h-39.83l-39.83,0h-4.979c-1.801-0.034-2.978,0.028-4.244,0.571c-1.234,0.509-2.322,1.424-3.215,2.56
						c-0.458,0.556-0.85,1.185-1.209,1.831c-0.351,0.633-0.675,1.369-0.879,1.976l-5.289,19.145
						c-0.324,0.014-0.66-0.002-0.993-0.064c0.758,0.18,1.508,0.309,2.223,0.403l5.281-19.117c0.185-0.539,0.483-1.213,0.807-1.788
						c0.333-0.582,0.685-1.157,1.097-1.642c0.799-1.012,1.737-1.749,2.741-2.155l0.378-0.153c0.125-0.054,0.265-0.063,0.395-0.1
						l0.395-0.102c0.133-0.021,0.267-0.021,0.399-0.036l0.398-0.047c0.156-0.013,0.402-0.004,0.598-0.007h1.249l4.994,0l39.955,0
						l39.955,0l10.002-0.013c1.375-0.002,2.82,0.192,4.061,0.559c1.244,0.379,2.248,0.971,2.872,1.665
						c0.156,0.177,0.265,0.375,0.411,0.554c0.044,0.108,0.092,0.212,0.144,0.315c0.051,0.121,0.11,0.162,0.165,0.356
						c0.107,0.334,0.233,0.641,0.332,0.995c0.096,0.358,0.203,0.704,0.293,1.07c0.369,1.463,0.632,3.034,0.86,4.61
						c0.446,3.16,0.713,6.433,0.854,9.654c1.614,0.269,3.993,0.222,5.898-0.11c-0.148-3.441-0.42-6.815-0.896-10.254
						c-0.243-1.718-0.528-3.44-0.965-5.208c-0.222-0.886-0.472-1.78-0.812-2.709c-0.043-0.118-0.074-0.223-0.127-0.351l-0.191-0.409
						l-0.399-0.811c-0.292-0.524-0.669-1.007-1.03-1.485c-1.591-1.828-3.639-2.87-5.568-3.488c-1.957-0.59-3.855-0.836-5.803-0.852
						L231.81,4.016H191.8l-40.01,0h-5.001h-1.25l-0.633,0.002l-0.846,0.072l-0.844,0.089l-0.819,0.191
						c-0.272,0.07-0.547,0.128-0.813,0.214l-0.785,0.304c-2.089,0.846-3.824,2.284-5.093,3.878
						c-0.664,0.791-1.191,1.641-1.686,2.502c-0.485,0.88-0.883,1.733-1.239,2.757l-5.381,19.434
						C127.857,33.654,128.306,33.852,128.779,34.031z"/>
					<path style="fill:#797A7D;" d="M130.852,34.658l-0.388-0.096C130.592,34.602,130.722,34.633,130.852,34.658z"/>
				</g>
				<path style="opacity:0.8;fill:#FFFFFF;" d="M253.927,29.035c-0.195,0.009-0.355-0.024-0.358-0.076
					c-0.167-3.271-0.446-6.55-0.923-9.773c-0.246-1.608-0.542-3.206-0.953-4.744c-0.112-0.378-0.2-0.773-0.337-1.133
					c-0.133-0.356-0.236-0.767-0.405-1.052c-0.15-0.314-0.29-0.633-0.515-0.901c-0.104-0.139-0.194-0.287-0.305-0.421l-0.37-0.374
					c-0.992-1-2.393-1.636-3.867-2.028c-1.471-0.396-3.077-0.555-4.6-0.516l-9.969,0.005l-39.703-0.002l-39.704-0.002l-4.963,0
					l-1.241,0h-0.62c-0.207,0-0.367,0.033-0.552,0.047c-0.359,0.033-0.72,0.053-1.069,0.163l-0.529,0.126
					c-0.175,0.045-0.338,0.129-0.508,0.191c-2.723,1.038-4.723,3.732-5.8,6.581l-5.283,19.049c-0.014,0.05-0.177,0.048-0.366-0.004
					c-0.189-0.052-0.33-0.135-0.316-0.184c1.768-6.364,3.511-12.792,5.3-19.104c0.566-1.509,1.378-2.941,2.404-4.179
					c1.023-1.24,2.326-2.243,3.805-2.818c0.186-0.068,0.365-0.158,0.557-0.207l0.579-0.14c0.382-0.117,0.778-0.143,1.173-0.179
					c0.387-0.054,0.801-0.053,1.217-0.049l1.241,0l4.964,0l39.707,0.002l39.707,0.002l9.941-0.005
					c1.609-0.041,3.255,0.123,4.811,0.539c1.551,0.413,3.064,1.087,4.18,2.206l0.413,0.42c0.125,0.151,0.229,0.317,0.346,0.474
					c0.251,0.304,0.413,0.662,0.581,1.016c0.335,0.711,0.564,1.51,0.78,2.292c0.422,1.578,0.72,3.198,0.97,4.824
					c0.482,3.257,0.762,6.551,0.93,9.844C254.279,28.977,254.122,29.026,253.927,29.035z"/>
			</g>
		</g>
		<g>
			<g>
				<g>
					<g>
						<g>
							<path style="fill:#DE1A22;" d="M85.843,124.665c-1.032,0.937-2.218,1.752-3.591,2.442c-0.409,0.304-0.636,0.484-0.636,0.484
								l-0.203-0.082c-0.355,0.156-0.714,0.312-1.092,0.452c-14.237,5.288-39.384,15.372-47.256,17.254
								c-4.75,1.135-9.048,0.018-11.721-1.049c-3.599,2.816-5.332,5.634-6.104,9.967c-1.387,7.783-0.27,23.948-0.27,23.948
								l-5.019,2.592c0,0-0.095,0-0.25,0.023c0.659-0.038,1.358-0.028,2.113,0.053c9.096,0.988,13.08,3.235,13.705,7.384
								c0.625,4.154,1.637,16.901,1.637,16.901s5.094-0.032,13.98-0.089c-0.299-9.502,1.243-42.217,35.159-54.848
								c3.599-10.48,7.412-19.385,10.532-26.03C86.485,124.27,86.155,124.469,85.843,124.665z"/>
							<path style="fill:#CF2027;" d="M76.289,146.535c-3.932,0.679-7.786,1.815-11.482,3.317c-3.765,1.53-7.38,3.458-10.721,5.773
								c-3.202,2.219-6.166,4.819-8.646,7.83c-2.317,2.814-4.189,6.019-5.268,9.51c-0.102,0.328-0.588,0.344-0.682,0
								c-0.404-1.478-1.149-2.927-2.42-3.839c-1.291-0.926-2.886-1.121-4.423-0.845c-0.269,0.048-0.497-0.157-0.435-0.435
								c0.504-2.269,0.478-4.645,0.186-6.941c-0.561-4.42-2.179-8.977-5.055-12.431c-1.334-1.601-2.987-2.986-4.937-3.765
								c-0.409-0.163-0.826-0.289-1.247-0.394c-3.471,2.766-5.16,5.561-5.919,9.817c-1.387,7.783-0.27,23.948-0.27,23.948
								l-5.019,2.592c0,0-0.095,0-0.25,0.023c0.659-0.037,1.358-0.027,2.113,0.053c9.096,0.988,13.08,3.234,13.705,7.384
								c0.625,4.154,1.637,16.901,1.637,16.901s5.094-0.032,13.98-0.089c-0.299-9.502,1.243-42.217,35.159-54.848
								c0.44-1.281,0.883-2.538,1.328-3.771C77.176,146.388,76.732,146.458,76.289,146.535z"/>
							<path style="fill:#82080C;" d="M26.659,205.571l-0.039-0.498c-0.012-0.125-1.019-12.774-1.634-16.861
								c-0.59-3.917-4.547-5.99-13.231-6.932c-0.688-0.075-1.383-0.09-2.023-0.049l-0.116-1.066
								c0.073-0.013,0.135-0.018,0.186-0.025l4.609-2.376c-0.16-2.469-0.986-16.512,0.299-23.73
								c0.79-4.427,2.615-7.408,6.304-10.293l0.243-0.19l0.286,0.113c1.685,0.674,4.335,1.481,7.383,1.49
								c1.367,0.004,2.717-0.151,4.013-0.461c5.634-1.345,20.328-6.98,33.289-11.952c5.102-1.956,9.918-3.802,13.905-5.283
								c0.37-0.137,0.718-0.29,1.063-0.438l0.207-0.091l0.128,0.05c0.105-0.08,0.239-0.18,0.401-0.301l0.08-0.048
								c1.308-0.659,2.445-1.432,3.473-2.362l0.074-0.055c0.315-0.195,0.647-0.401,0.989-0.606l1.514-0.913l-0.751,1.601
								c-3.928,8.364-7.464,17.104-10.512,25.977l-0.083,0.238l-0.237,0.091c-33.494,12.472-35.111,44.734-34.81,54.325l0.019,0.55
								L26.659,205.571z M11.979,180.227c9.186,1.01,13.395,3.354,14.07,7.828c0.55,3.655,1.407,14.04,1.6,16.439l12.934-0.084
								c-0.222-10.377,1.962-42.171,35.284-54.727c2.818-8.177,6.048-16.244,9.617-24.004c-0.895,0.718-1.867,1.341-2.949,1.889
								c-0.373,0.277-0.582,0.44-0.585,0.443l-0.244,0.193l-0.285-0.113c-0.296,0.131-0.599,0.254-0.913,0.375
								c-3.982,1.478-8.797,3.323-13.896,5.276c-12.992,4.985-27.72,10.633-33.424,11.994c-1.38,0.33-2.814,0.496-4.265,0.491
								c-3.045-0.01-5.707-0.768-7.488-1.451c-3.34,2.678-4.938,5.351-5.668,9.45c-1.359,7.629-0.274,23.657-0.262,23.817
								l0.025,0.35L11.979,180.227z"/>
						</g>
						<g>
							<path style="fill:#DE1A22;" d="M352.641,149.582c-0.894-14.369-4.873-22.152-10.05-24.049
								c-5.174-1.904-18.848-5.148-18.848-5.148s-0.952-0.118-2.355-0.3c-3.22-0.374-6.773-0.66-10.629-0.878
								c1.824,4.373,10.305,27.681,10.719,83.524c1.239-0.015,2.437-0.027,3.595-0.044c-0.024-3.742-0.023-9.39,0.129-15.788
								c0.274-11.443,18.625-9.478,27.848-8.728C353.049,178.172,353.541,163.951,352.641,149.582z"/>
							<path style="fill:#CF2027;" d="M348.068,130.637c-2.523,1.442-4.731,3.444-6.448,5.785
								c-2.695,3.674-4.254,8.162-4.179,12.734c0.005,0.298-0.397,0.48-0.604,0.25c-1.535-1.705-3.526-2.973-5.512-4.088
								c-0.831-0.467-1.669-0.948-2.574-1.252c-1.002-0.336-2.043-0.56-3.098-0.637c-1.866-0.137-3.711,0.176-5.493,0.716
								c-0.987,0.299-1.953,0.656-2.913,1.03c2.159,13.233,4.041,31.981,4.231,57.557c1.239-0.015,2.437-0.027,3.595-0.044
								c-0.024-3.742-0.023-9.39,0.129-15.788c0.274-11.443,18.625-9.478,27.848-8.728c0,0,0.491-14.221-0.409-28.59
								C352.102,140.918,350.436,134.665,348.068,130.637z"/>
							<path style="fill:#82080C;" d="M320.945,203.275l-0.002-0.537c-0.417-55.914-8.966-79.222-10.677-83.325l-0.331-0.791
								l0.855,0.049c4.055,0.233,7.54,0.521,10.658,0.884c1.407,0.182,2.358,0.297,2.358,0.297
								c0.619,0.142,13.825,3.287,18.969,5.177c5.855,2.148,9.549,10.857,10.4,24.522c0.889,14.228,0.415,28.497,0.41,28.639
								l-0.017,0.564l-1.625-0.133c-2.755-0.231-6.177-0.514-9.617-0.525c-11.019-0.035-16.448,2.846-16.59,8.816
								c-0.154,6.418-0.153,12.119-0.128,15.775l0.006,0.531L320.945,203.275z M311.574,119.791
								c2.262,5.822,9.993,29.547,10.436,82.399l2.523-0.031c-0.021-3.669-0.015-9.147,0.133-15.272
								c0.159-6.674,5.939-9.902,17.665-9.865c3.481,0.011,6.93,0.3,9.701,0.528l0.499,0.041c0.077-2.777,0.36-15.39-0.422-27.973
								c-0.814-13.023-4.35-21.617-9.703-23.584c-5.062-1.857-18.53-5.067-18.783-5.127h-0.003c-0.026,0-0.953-0.115-2.3-0.285
								C318.445,120.283,315.248,120.012,311.574,119.791z"/>
						</g>
						<g>
							<path style="fill:#DE1A22;" d="M242.278,118.304c-34.971-0.343-126.592-0.864-137.785-0.434
								c-6.528,0.252-13.222,3.517-17.669,6.195c-3.12,6.645-6.933,15.55-10.532,26.03c5.895-2.194,12.76-3.786,20.773-4.541
								c27.616-0.47,58.084,14.883,59.133,58.592c12.143-0.09,61.085-0.284,154.342-1.289c3.918-0.04,7.571-0.082,10.937-0.124
								c-0.414-55.844-8.895-79.152-10.719-83.524C293.333,118.209,269.678,118.573,242.278,118.304z"/>
						</g>
						<g>
							<path style="fill:#CF2027;" d="M240.567,123.086c-15.085,0.139-30.17,0.479-45.256,0.529
								c-14.96,0.049-29.921-0.134-44.88,0.058c-5.842,0.075-11.691,0.164-17.529,0.377c-4.262,0.155-8.549,0.475-12.718,1.416
								c-3.892,0.878-7.824,2.328-10.832,5.033c-0.681,0.612-1.283,1.277-1.818,1.981c1.437-0.616,2.923-1.099,4.331-1.491
								c5.35-1.492,11.021-1.293,16.516-0.969c6.846,0.405,13.502,1.433,20.183,2.963c6.773,1.551,13.471,3.129,20.394,3.848
								c14.077,1.463,28.142,1.629,42.201-0.104c13.847-1.708,65.665-9.858,77.262-13.949c-1.345-0.166-2.697-0.277-4.052-0.341
								C277.24,122.093,248.043,123.017,240.567,123.086z"/>
						</g>
						<g>
							<path style="fill:#C3151C;" d="M317.219,145.003c-0.718,0.245-1.441,0.454-2.157,0.618c-2.495,0.569-5.046,0.693-7.579,0.332
								c-4.41-0.629-8.75-1.636-13.099-2.586c-8.095-1.767-16.224-2.85-24.525-2.552c-7.633,0.274-15.376,1.701-22.199,5.258
								c-9.497,4.95-15.856,13.624-23.1,21.284c-2.057,2.798-4.029,5.657-6.119,8.438c-2.928,3.896-6.177,7.626-10.335,10.249
								c-4.77,3.009-10.215,4.11-15.763,4.572c-5.581,0.464-11.282,0.294-16.725-1.118c-5.268-1.367-10.145-3.957-14.135-7.671
								c-4.909-4.57-7.903-10.529-11.021-16.365c-2.038-3.813-4.257-7.488-7-10.767c-2.194-2.028-4.559-3.864-7.158-5.441
								c-4.818-2.925-10.151-4.897-15.655-6.069c-5.819-1.239-11.797-1.604-17.735-1.468c-4.503,0.103-9.412,1.04-13.732-0.67
								c-1.987-0.787-3.553-2.199-4.338-4.211c-0.811-2.08-0.529-4.479-0.078-6.608c0.341-1.608,0.826-3.173,1.385-4.713
								c-2.986,6.469-6.514,14.844-9.858,24.582c5.895-2.194,12.76-3.786,20.773-4.541c27.616-0.47,58.084,14.883,59.133,58.592
								c12.143-0.09,61.085-0.284,154.342-1.289c3.918-0.04,7.571-0.082,10.937-0.124
								C321.287,177.044,319.39,158.246,317.219,145.003z"/>
						</g>
					</g>
					<g>
						<path style="fill:none;" d="M321.388,120.086c1.403,0.182,2.355,0.3,2.355,0.3C322.979,120.279,322.19,120.18,321.388,120.086
							z"/>
						<path style="fill:none;" d="M82.252,127.107c1.373-0.689,2.558-1.505,3.591-2.442
							C84.198,125.701,82.95,126.589,82.252,127.107z"/>
						<path style="fill:#82080C;" d="M86.13,125.121l-0.644-0.854c3.583-3.235,5.486-8.166,7.501-13.382
							c0.085-0.226,0.158-0.446,0.223-0.661l0.05-0.114c1.029-1.764,2.101-3.892,3.104-5.934
							c5.331-10.83,18.82-41.762,22.546-53.964c2.57-8.418-1.36-13.568-3.933-15.885l-0.438-0.391l0.432-0.402
							c3.935-3.643,7.792-5.135,15.869-6.132c11.48-1.419,52.221-3.961,84.34-3.86c10.46,0.033,19.194,0.345,25.95,0.931
							c20.918,2.156,27.381,3.92,37.961,15.062c1.175,1.24,2.429,2.709,3.731,4.366l0.078,0.097l0.023,0.124
							c2.052,9.737,5.375,24.012,9.535,36.731c7.072,21.616,15.854,36.484,18.09,37.048c2.014,0.482,7.698,1.246,10.908,1.656
							l-0.132,1.066c-12.092-1.411-28.704-1.573-49.171-1.637l-11.146-0.03c-5.447-0.017-11.935-0.045-18.733-0.113
							c-19.873-0.193-59.303-0.455-90.882-0.554c-18.444-0.058-41.547-0.086-46.876,0.12
							C97.743,118.667,90.781,122.204,86.13,125.121z M94.217,110.597c-0.068,0.222-0.144,0.446-0.231,0.671
							c-1.585,4.103-3.101,8.031-5.426,11.175c4.51-2.488,10.256-4.889,15.914-5.107c5.346-0.205,28.466-0.179,46.92-0.121
							c31.583,0.1,71.012,0.358,90.89,0.556c6.799,0.063,13.279,0.091,18.726,0.109l11.146,0.03
							c14.475,0.046,27.025,0.142,37.433,0.692c-4.28-2.913-13.118-22.032-18.151-37.419c-4.156-12.709-7.477-26.961-9.54-36.718
							c-1.249-1.593-2.457-3.002-3.586-4.192c-10.336-10.883-16.685-12.607-37.282-14.736c-6.72-0.578-15.42-0.89-25.852-0.923
							c-31.573-0.1-73.047,2.473-84.205,3.853c-7.616,0.939-11.207,2.242-14.845,5.466c2.743,2.657,6.413,8.063,3.809,16.593
							c-3.74,12.249-17.266,43.268-22.611,54.124C96.322,106.686,95.252,108.814,94.217,110.597z"/>
						<path style="fill:#E63C11;" d="M81.676,127.999l-1.187-0.475l0.778-0.342c0.284-0.125,0.555-0.26,0.822-0.393l0.374,0.608
							c-0.399,0.297-0.621,0.472-0.624,0.472L81.676,127.999z"/>
					</g>
					<g>
						<path style="fill:#BDBEC0;" d="M97.066,145.554c-53.269,2.489-56.284,48.234-55.932,59.388
							c21.801-0.144,66.473-0.442,115.065-0.797C155.15,160.437,128.003,144.285,97.066,145.554z"/>
						<path style="fill:#727375;" d="M40.787,205.301l-0.01-0.35c-0.132-4.227,0.043-19.107,7.905-33.128
							c9.309-16.604,25.584-25.562,48.368-26.627c1.207-0.049,2.415-0.074,3.596-0.07c15.739,0.049,29.112,4.789,38.676,13.705
							c10.96,10.22,16.76,25.463,17.235,45.306l0.009,0.364l-0.365,0.002c-48.592,0.355-93.264,0.653-115.065,0.798L40.787,205.301z
							 M100.643,145.843c-1.171-0.004-2.369,0.019-3.562,0.068c-22.521,1.053-38.595,9.888-47.778,26.263
							c-7.567,13.496-7.93,27.809-7.821,32.406c21.871-0.141,66.156-0.44,114.349-0.79
							C154.407,151.65,116.784,145.894,100.643,145.843z"/>
					</g>
					<g>
						<path style="fill:#BDBEC0;" d="M150.729,176.06c0.295,1.496,0.715,3.098,1.305,4.826c5.827,17.042-7.804,20.406-9.314,8.637
							c-6.711-31.594-33.923-40.346-58.397-33.923c-35.01,9.795-26.45,43.871-35.424,42.915c-7.065-0.752-6.046-9.535-5.292-13.238
							c-2.333,8.465-2.589,15.966-2.473,19.665c21.801-0.144,66.473-0.442,115.065-0.797
							C155.933,193.064,153.986,183.763,150.729,176.06z"/>
					</g>
					<g>
						<g>
							<path style="fill:#1F1E21;" d="M139.403,198.33c-0.07,22.373-18.265,40.453-40.634,40.382
								c-22.373-0.07-40.452-18.265-40.381-40.638c0.07-22.37,18.263-40.45,40.636-40.38
								C121.394,157.765,139.474,175.959,139.403,198.33z"/>
							<path d="M98.768,239.131c-22.568-0.071-40.871-18.488-40.8-41.058c0.071-22.566,18.49-40.871,41.058-40.8
								c22.568,0.071,40.87,18.492,40.799,41.058C139.754,220.901,121.336,239.202,98.768,239.131z M99.023,158.118
								c-22.104-0.07-40.142,17.854-40.212,39.958c-0.07,22.104,17.855,40.144,39.959,40.214
								c22.103,0.07,40.143-17.857,40.212-39.961C139.053,176.224,121.127,158.187,99.023,158.118z"/>
						</g>
						<path style="opacity:0.5;fill:#4F5052;" d="M129.177,198.297c-0.053,16.725-13.652,30.239-30.375,30.186
							c-16.724-0.053-30.238-13.652-30.186-30.377c0.053-16.722,13.653-30.236,30.376-30.183
							C115.716,167.976,129.23,181.575,129.177,198.297z"/>
						<g style="opacity:0.5;">
							<path style="fill:#1B1C1E;" d="M98.487,157.693c-22.37-0.07-40.563,18.009-40.634,40.38
								c-0.07,22.373,18.008,40.567,40.378,40.638c22.372,0.07,40.566-18.009,40.637-40.383
								C138.939,175.958,120.859,157.763,98.487,157.693z M98.247,233.884c-19.705-0.062-35.631-16.09-35.569-35.796
								c0.062-19.706,16.089-35.631,35.793-35.569c19.708,0.062,35.635,16.087,35.573,35.794
								C133.982,218.019,117.954,233.946,98.247,233.884z"/>
						</g>
						<path style="opacity:0.5;fill:#1B1C1E;" d="M118.855,198.265c-0.035,11.024-8.999,19.93-20.021,19.895
							c-11.023-0.035-19.929-8.997-19.895-20.021c0.035-11.022,8.997-19.927,20.021-19.892
							C109.982,178.282,118.89,187.243,118.855,198.265z"/>
						<g>
							<path style="fill:#BDBEC0;" d="M115.624,198.255c-0.029,9.239-7.542,16.704-16.78,16.675
								c-9.239-0.029-16.704-7.542-16.675-16.781c0.029-9.239,7.542-16.704,16.781-16.675
								C108.187,181.503,115.653,189.016,115.624,198.255z"/>
							<path style="fill:#727375;" d="M98.843,215.353c-9.457-0.03-17.124-7.75-17.094-17.205
								c0.03-9.455,7.745-17.124,17.202-17.094c9.456,0.03,17.124,7.747,17.094,17.202
								C116.016,207.711,108.299,215.383,98.843,215.353z M98.948,181.896c-8.991-0.028-16.331,7.265-16.359,16.255
								c-0.028,8.99,7.265,16.328,16.256,16.356c8.99,0.028,16.328-7.263,16.356-16.253
								C115.23,189.263,107.938,181.924,98.948,181.896z"/>
						</g>
						<g>
							<path style="fill:#BDBEC0;" d="M98.95,181.474c-9.239-0.029-16.751,7.437-16.781,16.675
								c-0.029,9.239,7.437,16.751,16.675,16.781c9.237,0.029,16.751-7.436,16.78-16.675
								C115.653,189.016,108.187,181.503,98.95,181.474z M98.852,212.621c-7.963-0.025-14.396-6.499-14.371-14.464
								c0.025-7.962,6.499-14.395,14.462-14.37c7.961,0.025,14.397,6.5,14.372,14.461
								C113.289,206.212,106.812,212.646,98.852,212.621z"/>
						</g>
						<g>
							<path style="fill:#BDBEC0;" d="M105.405,198.884c-0.011,3.594-2.935,6.5-6.53,6.489c-3.595-0.011-6.498-2.936-6.487-6.53
								c0.011-3.595,2.933-6.497,6.528-6.486C102.511,192.369,105.416,195.289,105.405,198.884z"/>
							<path style="fill:#727375;" d="M98.873,205.793c-3.822-0.012-6.918-3.131-6.906-6.951c0.012-3.821,3.128-6.92,6.949-6.908
								c3.82,0.012,6.92,3.131,6.908,6.951C105.812,202.706,102.694,205.805,98.873,205.793z M98.914,192.779
								c-3.356-0.011-6.096,2.71-6.106,6.066c-0.011,3.355,2.712,6.096,6.068,6.106c3.355,0.011,6.095-2.713,6.105-6.068
								C104.992,195.528,102.269,192.79,98.914,192.779z"/>
						</g>
						<g>
							<path style="fill:#BDBEC0;" d="M98.915,192.358c-3.595-0.011-6.517,2.89-6.528,6.486c-0.011,3.593,2.892,6.518,6.487,6.53
								c3.595,0.011,6.519-2.895,6.53-6.489C105.416,195.289,102.511,192.369,98.915,192.358z M98.882,203.011
								c-2.289-0.007-4.14-1.87-4.133-4.161c0.007-2.29,1.87-4.139,4.159-4.132c2.289,0.007,4.141,1.868,4.133,4.158
								C103.034,201.167,101.171,203.018,98.882,203.011z"/>
						</g>
						<g>
							<path style="fill:#BDBEC0;" d="M101.273,187.234c-0.004,1.295-1.056,2.338-2.349,2.334c-1.294-0.004-2.338-1.054-2.334-2.349
								c0.004-1.294,1.054-2.339,2.349-2.335C100.232,184.888,101.277,185.94,101.273,187.234z"/>
							<path style="fill:#727375;" d="M98.923,189.992c-1.524-0.005-2.759-1.248-2.754-2.774c0.005-1.524,1.248-2.758,2.772-2.753
								c1.524,0.005,2.759,1.247,2.754,2.77C101.69,188.761,100.447,189.996,98.923,189.992z M98.938,185.306
								c-1.058-0.003-1.923,0.856-1.927,1.915c-0.003,1.062,0.856,1.925,1.915,1.929c1.059,0.003,1.923-0.855,1.926-1.917
								C100.855,186.174,99.996,185.309,98.938,185.306z"/>
						</g>
						<g>
							<path style="fill:#BDBEC0;" d="M89.114,198.833c-0.004,1.294-1.056,2.339-2.349,2.335c-1.294-0.004-2.341-1.056-2.337-2.35
								c0.004-1.291,1.057-2.337,2.351-2.333C88.073,196.49,89.118,197.542,89.114,198.833z"/>
							<path style="fill:#727375;" d="M86.764,201.587c-1.524-0.005-2.76-1.248-2.756-2.77c0.005-1.524,1.249-2.758,2.773-2.753
								c1.523,0.005,2.759,1.246,2.754,2.77C89.531,200.357,88.287,201.592,86.764,201.587z M86.779,196.906
								c-1.061-0.003-1.925,0.855-1.928,1.914c-0.003,1.058,0.855,1.922,1.916,1.925c1.059,0.003,1.923-0.855,1.926-1.913
								C88.696,197.773,87.838,196.909,86.779,196.906z"/>
						</g>
						<g>
							<path style="fill:#BDBEC0;" d="M113.027,198.908c-0.004,1.294-1.056,2.339-2.35,2.335c-1.295-0.004-2.34-1.056-2.336-2.35
								c0.004-1.291,1.056-2.337,2.35-2.333C111.986,196.565,113.031,197.617,113.027,198.908z"/>
							<path style="fill:#727375;" d="M110.676,201.663c-1.523-0.005-2.759-1.248-2.754-2.77c0.005-1.524,1.249-2.758,2.772-2.753
								c1.525,0.005,2.761,1.246,2.756,2.77C113.444,200.432,112.201,201.667,110.676,201.663z M110.691,196.981
								c-1.058-0.003-1.923,0.855-1.926,1.914c-0.003,1.058,0.856,1.922,1.914,1.925c1.06,0.003,1.924-0.855,1.927-1.913
								C112.609,197.848,111.751,196.984,110.691,196.981z"/>
						</g>
						<g>
							<path style="fill:#BDBEC0;" d="M101.202,209.961c-0.004,1.294-1.056,2.339-2.349,2.335c-1.294-0.004-2.338-1.056-2.334-2.35
								c0.004-1.294,1.054-2.339,2.349-2.335C100.161,207.615,101.206,208.667,101.202,209.961z"/>
							<path style="fill:#727375;" d="M98.851,212.718c-1.524-0.005-2.759-1.25-2.754-2.773c0.005-1.524,1.248-2.758,2.772-2.753
								c1.524,0.005,2.759,1.246,2.754,2.77C101.618,211.485,100.376,212.723,98.851,212.718z M98.866,208.034
								c-1.058-0.003-1.923,0.855-1.927,1.914c-0.003,1.062,0.856,1.925,1.915,1.929c1.059,0.003,1.923-0.855,1.926-1.917
								C100.783,208.901,99.925,208.037,98.866,208.034z"/>
						</g>
					</g>
					<g>
						<g>
							<g>
								<path style="fill:#BDBEC0;" d="M12.867,162.308c-0.027,8.747,3.635,15.852,8.181,15.867
									c4.546,0.014,8.255-7.068,8.283-15.815c0.028-8.747-3.637-15.851-8.183-15.865C16.602,146.48,12.895,153.561,12.867,162.308
									z"/>
								<path style="fill:#727375;" d="M21.047,178.486c-4.71-0.015-8.521-7.271-8.492-16.179
									c0.028-8.907,3.884-16.143,8.594-16.128c4.712,0.015,8.522,7.275,8.494,16.182
									C29.615,171.269,25.759,178.501,21.047,178.486z M21.147,146.805c-4.365-0.014-7.94,6.944-7.967,15.503
									c-0.027,8.561,3.504,15.538,7.869,15.552c4.366,0.014,7.939-6.941,7.966-15.502
									C29.042,153.799,25.512,146.819,21.147,146.805z"/>
							</g>
							<path style="fill:#BDBEC0;" d="M12.867,162.308c-0.026,8.164,3.394,14.793,7.634,14.807
								c4.244,0.013,7.702-6.594,7.728-14.758c0.026-8.164-3.391-14.793-7.635-14.806C16.354,147.536,12.893,154.144,12.867,162.308
								z"/>
							<g>
								<path style="fill:#F97510;" d="M13.001,162.308c-0.024,7.533,3.128,13.647,7.041,13.659
									c3.913,0.012,7.104-6.081,7.128-13.614c0.024-7.528-3.128-13.645-7.042-13.657C16.214,148.684,13.024,154.78,13.001,162.308
									z"/>
								<path style="fill:#A34505;" d="M20.04,176.373c-4.133-0.013-7.474-6.321-7.449-14.066
									c0.024-7.745,3.405-14.034,7.538-14.021c4.133,0.013,7.474,6.324,7.449,14.069C27.553,170.23,24.244,176.386,20.04,176.373z
									 M20.126,149.104c-3.681-0.012-6.693,5.912-6.716,13.205c-0.023,7.293,2.952,13.236,6.633,13.247
									c3.681,0.012,6.695-5.912,6.718-13.205C26.784,155.058,23.806,149.116,20.126,149.104z"/>
							</g>
							<path style="opacity:0.6;fill:#F97510;" d="M15.31,159.465c-0.013,4.194,1.742,7.6,3.92,7.607
								c2.178,0.007,3.957-3.388,3.97-7.582c0.013-4.192-1.744-7.599-3.923-7.606C17.1,151.877,15.323,155.273,15.31,159.465z"/>
							<g>
								<path style="fill:#F97510;" d="M13.001,162.308c-0.024,7.533,3.128,13.647,7.041,13.659
									c3.913,0.012,7.104-6.081,7.128-13.614c0.024-7.528-3.128-13.645-7.042-13.657C16.214,148.684,13.024,154.78,13.001,162.308
									z M14.423,161.102c0.019-6.025,2.572-10.896,5.7-10.886c3.128,0.01,5.652,4.897,5.633,10.922
									c-0.019,6.017-2.574,10.894-5.702,10.884C16.926,172.012,14.404,167.119,14.423,161.102z"/>
							</g>
						</g>
						<g>
							<path style="fill:#FFFFFF;" d="M16.783,154.543c0,0-2.123,5.37-0.417,10.934c0.853,2.191-2.04,0.731-1.898-5.11
								C14.633,153.534,17.604,151.901,16.783,154.543z"/>
							<path style="fill:#FFFFFF;" d="M16.756,169.135c0.267,0.555,0.628,0.755,0.803,0.445c0.175-0.306,0.099-1.005-0.17-1.56
								c-0.269-0.555-0.628-0.753-0.801-0.445C16.412,167.883,16.487,168.584,16.756,169.135z"/>
						</g>
					</g>
					<g>
						<g>
							<path style="fill:#BDBEC0;" d="M38.657,177.87c-0.011,3.433-1.977,6.215-4.389,6.207c-2.411-0.008-4.359-2.802-4.348-6.235
								c0.011-3.433,1.976-6.212,4.387-6.205C36.719,171.645,38.668,174.436,38.657,177.87z"/>
							<path style="fill:#727375;" d="M34.266,184.434c-2.604-0.008-4.715-2.967-4.704-6.593c0.011-3.627,2.141-6.568,4.745-6.56
								c2.608,0.008,4.717,2.963,4.706,6.59C39.002,181.497,36.874,184.443,34.266,184.434z M34.306,171.995
								c-2.212-0.007-4.018,2.618-4.028,5.848c-0.01,3.234,1.779,5.868,3.991,5.874c2.212,0.007,4.02-2.615,4.03-5.849
								C38.309,174.638,36.517,172.002,34.306,171.995z"/>
						</g>
						<g>
							<g>
								<g>
									<path style="fill:#FAA21B;" d="M33.034,182.658c-1.931-0.006-3.495-2.245-3.486-4.99c0.009-2.749,1.586-4.978,3.517-4.972
										c1.931,0.006,3.495,2.246,3.486,4.994C36.543,180.435,34.965,182.664,33.034,182.658z"/>
								</g>
							</g>
						</g>
					</g>
					<g>
						<path style="fill:#82080C;" d="M324.622,121.03l-0.943-0.114c-0.426-0.05-10.466-1.278-13.387-1.972
							c-3.928-0.998-13.525-21.472-18.853-37.762c-4.177-12.761-7.506-27.08-9.566-36.843l-0.476-2.259l1.426,1.819
							c7.655,9.772,15.485,24.392,21.201,35.068c1.141,2.132,2.195,4.099,3.136,5.821c6.339,11.588,16.965,35.139,17.072,35.376
							L324.622,121.03z M283.423,46.462c2.072,9.596,5.2,22.655,9.035,34.389c7.072,21.616,15.854,36.484,18.09,37.048
							c2.337,0.559,9.684,1.505,12.311,1.835c-1.987-4.378-11.017-24.145-16.638-34.431c-0.949-1.726-2.001-3.694-3.143-5.828
							C297.74,69.508,290.554,56.09,283.423,46.462z"/>
					</g>
					<g>
						<path style="fill:#B1B3B6;" d="M306.69,85.051c-5.636-10.309-15.13-29.125-24.292-40.82
							c1.944,9.206,5.311,23.824,9.553,36.786c6.816,20.845,15.715,36.707,18.467,37.403c2.924,0.699,13.325,1.966,13.325,1.966
							S313.088,96.75,306.69,85.051z M309.359,111.131c-2.083-0.53-8.829-12.549-13.993-28.348
							c-3.216-9.822-5.766-20.899-7.239-27.877c6.944,8.866,14.135,23.124,18.406,30.935c4.851,8.867,12.925,26.777,12.925,26.777
							S311.574,111.659,309.359,111.131z"/>
					</g>
					<g>
						<path style="fill:#82080C;" d="M65.138,121.747l0.34-0.773c0.238-0.54,23.913-54.133,37.672-73.189
							c0.812-1.043,1.565-2.016,2.279-2.935c4.112-5.298,6.829-8.802,9.542-11.316l0.359-0.333l0.366,0.328
							c2.761,2.492,6.984,8.01,4.241,16.997c-3.74,12.249-17.266,43.268-22.611,54.124c-5.158,10.478-7.244,13.122-15.907,15.017
							c-8.541,1.871-15.368,2.056-15.436,2.059L65.138,121.747z M115.336,34.662c-2.534,2.437-5.166,5.829-9.062,10.845
							c-0.713,0.918-1.466,1.893-2.269,2.919c-12.767,17.687-34.197,65.452-37.194,72.189c2.071-0.111,7.688-0.533,14.374-1.997
							c8.261-1.807,10.125-4.181,15.178-14.442c5.331-10.83,18.82-41.762,22.546-53.964
							C121.363,42.18,117.894,37.123,115.336,34.662z"/>
					</g>
					<path style="fill:#82080C;" d="M105.969,118.573c-1.834-0.006-3.128-0.551-3.843-1.618c-1.569-2.348-0.246-6.792,2.568-13.673
						c1.952-4.767,5.139-13.686,8.51-23.126c2.909-8.139,5.918-16.555,8.558-23.533c6.107-16.132,14.739-19.175,23.155-20.055
						c9.056-0.952,36.603-2.274,41.544-2.258c5.608,0.018,6.72,4.333,6.698,11.286c-0.005,1.742,0,5.11,0.004,9.386
						c0.015,13.203,0.036,35.299-0.174,44.5c-0.02,0.868-0.032,1.7-0.04,2.503c-0.141,10.428-0.209,15.663-18.669,15.604
						c-19.084-0.06-67.445,0.967-67.932,0.979C106.223,118.57,106.097,118.573,105.969,118.573z M186.458,35.381
						c-4.927-0.016-32.398,1.304-41.428,2.251c-8.078,0.849-16.361,3.782-22.265,19.372c-2.637,6.966-5.643,15.377-8.548,23.511
						c-3.379,9.455-6.57,18.383-8.53,23.173c-2.046,5.003-4.108,10.517-2.669,12.671c0.551,0.821,1.631,1.193,3.301,1.138
						c0.494-0.011,48.87-1.039,67.966-0.978c17.398,0.055,17.454-4.22,17.593-14.551c0.01-0.803,0.022-1.637,0.041-2.508
						c0.209-9.19,0.187-31.279,0.173-44.479c-0.006-4.276-0.009-7.646-0.004-9.389C192.111,37.971,190.69,35.394,186.458,35.381z"/>
					<g>
						<g>
							<path style="fill:#DE1A22;" d="M197.212,102.584c0.033-10.491,0.154-48.872,0.154-48.872
								c0.049-15.732-0.896-18.36,9.118-18.564c10.012-0.207,30.037,0.095,39.098,0.123c9.054,0.028,18.579,3.873,24.031,14.377
								c5.448,10.508,23.197,52.521,23.197,52.521c5.234,12.161,2.778,15.51-4.073,16.384c12.932,0.153,23.994,0.523,32.651,1.532
								c-3.249-0.416-8.93-1.177-10.97-1.666c-2.752-0.696-11.652-16.558-18.467-37.403c-4.242-12.962-7.609-27.58-9.553-36.786
								c-1.24-1.586-2.477-3.041-3.695-4.326c-10.217-10.759-16.17-12.688-37.619-14.898c-31.461-2.724-96.347,1.216-110.178,2.926
								c-7.732,0.955-11.57,2.288-15.569,5.995c2.763,2.492,6.725,7.8,4.087,16.44c-3.854,12.625-17.541,43.811-22.578,54.046
								c-1.167,2.371-2.167,4.328-3.121,5.965c-0.071,0.23-0.148,0.462-0.239,0.697c-2.204,5.714-4.059,10.353-7.641,13.589
								c4.4-2.759,11.611-6.515,18.631-6.794c-4.166-0.999-2.482-6.565,0.718-14.384c3.604-8.812,11.301-31.433,17.071-46.673
								c5.771-15.24,13.885-18.792,22.709-19.714c8.825-0.929,36.483-2.27,41.488-2.254c5.005,0.016,6.187,3.594,6.164,10.746
								c-0.023,7.152,0.107,41.72-0.17,53.876c-0.276,12.158,1.137,17.644-18.172,17.583c-12.166-0.038-35.97,0.36-51.92,0.66
								c31.24-0.049,92.714,0.326,119.917,0.592c2.543,0.025,5.049,0.044,7.526,0.06c-16.476-0.394-34.589-0.98-41.909-1.442
								C195.979,116.166,197.179,113.074,197.212,102.584z"/>
							<path style="fill:#C3151C;" d="M288.737,118.554c12.932,0.153,23.994,0.523,32.651,1.532
								c-3.249-0.416-8.93-1.177-10.97-1.666c-2.752-0.696-11.652-16.558-18.467-37.403c-4.242-12.962-7.609-27.58-9.553-36.786
								c-1.24-1.586-2.477-3.041-3.695-4.326c-5.336-5.619-9.512-8.827-15.336-10.927c-3.424,3.521-10.05,3.799-14.579,3.753
								c-3.388-0.034-6.757-0.358-10.137-0.557c-6.223-0.366-12.493-0.344-18.726-0.405c-14.231-0.139-28.476-0.036-42.701,0.403
								c-13.411,0.414-26.779,1.306-40.135,2.585c-4.229,0.405-8.626,0.833-12.809-0.152c-1.897-0.447-3.719-1.228-5.248-2.448
								c-0.235-0.187-0.457-0.385-0.672-0.589c-1.04,0.66-2.027,1.436-3.024,2.36c2.763,2.492,6.725,7.8,4.087,16.44
								c-3.854,12.625-17.541,43.811-22.578,54.046c-1.167,2.371-2.167,4.328-3.121,5.965c-0.071,0.23-0.148,0.462-0.239,0.697
								c-2.204,5.714-4.059,10.353-7.641,13.589c4.4-2.759,11.611-6.515,18.631-6.794c-4.166-0.999-2.482-6.565,0.718-14.384
								c3.604-8.812,11.301-31.433,17.071-46.673c5.771-15.24,13.885-18.792,22.709-19.714c8.825-0.929,36.483-2.27,41.488-2.254
								c5.005,0.016,6.187,3.594,6.164,10.746c-0.023,7.152,0.107,41.72-0.17,53.876c-0.276,12.158,1.137,17.644-18.172,17.583
								c-12.166-0.038-35.97,0.36-51.92,0.66c31.24-0.049,92.714,0.326,119.917,0.592c2.543,0.025,5.049,0.044,7.526,0.06
								c-16.476-0.394-34.589-0.98-41.909-1.442c-11.916-0.756-10.717-3.848-10.684-14.338c0.033-10.491,0.154-48.872,0.154-48.872
								c0.049-15.732-0.896-18.36,9.118-18.564c10.012-0.207,30.037,0.095,39.098,0.123c9.054,0.028,18.579,3.873,24.031,14.377
								c5.448,10.508,23.197,52.521,23.197,52.521C298.044,114.331,295.588,117.68,288.737,118.554z"/>
							<path style="fill:#C3151C;" d="M104.474,117.871c0.526,0.126,1.141,0.183,1.863,0.159c0,0,6.66-0.142,16.025-0.318
								c-8.921,0.014-15.382,0.063-17.868,0.158C104.487,117.87,104.48,117.871,104.474,117.871z"/>
							<path style="fill:#C3151C;" d="M249.804,118.363c10.347,0.248,20.049,0.42,26.025,0.439
								c5.109,0.016,9.537,0.182,12.908-0.248C277.14,118.417,264.038,118.453,249.804,118.363z"/>
						</g>
						<path style="fill:#82080C;" d="M281.794,119.386c-0.897-0.003-1.831-0.013-2.791-0.022c-1.026-0.01-2.085-0.02-3.176-0.023
							c-15.254-0.048-55.688-1.109-67.967-1.885c-11.369-0.718-11.326-3.861-11.21-12.262c0.011-0.816,0.023-1.684,0.025-2.61
							l0.154-48.872c0.004-1.347,0-2.597-0.001-3.761c-0.03-12.233-0.038-15.139,9.645-15.338c2.997-0.063,7.115-0.087,12.585-0.07
							c5.336,0.017,11.087,0.071,16.179,0.114c4.044,0.039,7.671,0.071,10.345,0.079c6.319,0.02,17.907,1.95,24.504,14.669
							c5.397,10.403,23.038,52.136,23.214,52.555c3.057,7.104,3.643,11.446,1.899,14.087
							C293.136,119.172,288.127,119.406,281.794,119.386z M219.056,35.617c-5.462-0.017-9.569,0.006-12.562,0.067
							c-8.627,0.179-8.624,1.78-8.593,14.266c0.002,1.163,0.007,2.414,0.003,3.764l-0.154,48.872
							c-0.003,0.929-0.016,1.801-0.028,2.62c-0.113,8.295-0.147,10.525,10.205,11.177c12.266,0.776,52.661,1.834,67.905,1.882
							c1.095,0.004,2.156,0.013,3.181,0.023c0.96,0.009,1.888,0.019,2.785,0.022c5.798,0.018,10.743-0.183,12.508-2.854
							c1.504-2.275,0.872-6.432-1.987-13.075c-0.179-0.424-17.805-42.117-23.184-52.487c-6.334-12.214-17.478-14.069-23.554-14.088
							c-2.674-0.008-6.308-0.04-10.351-0.076C230.137,35.685,224.39,35.634,219.056,35.617z"/>
					</g>
					<g>
						<path style="fill:#C3151C;" d="M33.065,145.214c7.872-1.882,33.02-11.966,47.256-17.254
							c7.638-2.837,10.039-8.789,13.163-16.885c0.091-0.235,0.169-0.468,0.239-0.697c-3.164,5.436-5.823,7.322-12.421,8.765
							c-8.589,1.88-15.334,2.046-15.334,2.046s-19.109,8.703-31.981,15.477c-5.713,3.006-9.772,5.251-12.644,7.499
							C24.017,145.232,28.315,146.349,33.065,145.214z"/>
						<path style="fill:#82080C;" d="M28.923,146.226L28.923,146.226c-3.217-0.01-6.006-0.858-7.777-1.564l-0.867-0.346l0.735-0.575
							c2.805-2.193,6.633-4.346,12.722-7.551c12.74-6.702,31.818-15.402,32.01-15.49l0.099-0.046l0.111,0
							c0.067-0.003,6.798-0.188,15.229-2.036c6.484-1.418,8.967-3.165,12.074-8.505l2.327-3.999l-1.351,4.426
							c-0.072,0.238-0.156,0.483-0.249,0.729c-3.069,7.951-5.494,14.232-13.478,17.198c-3.982,1.478-8.797,3.323-13.896,5.276
							c-12.992,4.985-27.72,10.633-33.424,11.994C31.809,146.066,30.374,146.231,28.923,146.226z M22.447,144.002
							c1.662,0.578,3.932,1.145,6.48,1.153l0,0c1.367,0.004,2.715-0.151,4.013-0.461c5.634-1.345,20.328-6.98,33.289-11.952
							c5.102-1.956,9.918-3.802,13.905-5.283c6.336-2.352,9.003-7.029,11.46-13.036c-2.423,2.83-5.221,4.16-10.176,5.245
							c-7.944,1.738-14.407,2.023-15.326,2.056c-1.495,0.683-19.614,8.973-31.856,15.415
							C28.75,140.028,25.12,142.047,22.447,144.002z"/>
					</g>
					<g>
						<path style="fill:#BDBEC0;" d="M11.813,180.747c-0.754-0.081-1.454-0.09-2.113-0.053c-0.907,0.145-3.984,1.117-3.871,7.841
							c0.134,7.876,1.835,17.648,6.557,19.083c4.72,1.43,14.869,1.088,14.769-2.586c0,0-1.011-12.747-1.637-16.901
							C24.892,183.982,20.909,181.735,11.813,180.747z"/>
						<path style="fill:#727375;" d="M18.573,208.757H18.57c-2.344-0.007-4.638-0.299-6.288-0.799
							c-4.803-1.456-6.667-10.987-6.809-19.417c-0.119-6.982,3.163-8.039,4.173-8.198c0.778-0.053,1.472-0.032,2.206,0.049
							c9.163,0.993,13.357,3.292,14.019,7.688c0.62,4.117,1.63,16.795,1.641,16.924c0.017,0.653-0.219,1.225-0.703,1.721
							C25.552,208.009,22.474,208.769,18.573,208.757z M10.485,181.031c-0.26-0.001-0.516,0.009-0.764,0.021
							c-0.831,0.131-3.643,1.072-3.535,7.475c0.132,7.807,1.86,17.399,6.303,18.747c1.587,0.48,3.805,0.762,6.083,0.769h0.003
							c3.656,0.012,6.616-0.683,7.722-1.817c0.348-0.36,0.512-0.746,0.501-1.185c-0.01-0.107-1.017-12.759-1.634-16.854
							c-0.605-4.013-4.608-6.131-13.389-7.083C11.343,181.057,10.909,181.032,10.485,181.031z"/>
					</g>
					<g>
						<g>
							<path style="fill:#CF2027;" d="M190.801,131.159c-0.007,2.158-1.766,3.906-3.927,3.899l-18.84-0.059
								c-2.159-0.007-3.908-1.766-3.901-3.924l0,0c0.007-2.163,1.766-3.911,3.925-3.904l18.84,0.059
								C189.06,127.237,190.808,128.996,190.801,131.159L190.801,131.159z"/>
							<path style="fill:#82080C;" d="M186.872,135.595l-18.84-0.059c-2.453-0.008-4.442-2.009-4.434-4.463
								c0.008-2.455,2.009-4.444,4.462-4.436l18.84,0.059c2.455,0.008,4.443,2.009,4.436,4.464
								C191.329,133.614,189.327,135.603,186.872,135.595z M168.057,127.709c-1.859-0.006-3.38,1.506-3.386,3.367
								c-0.006,1.86,1.505,3.379,3.365,3.384l18.839,0.059c1.863,0.006,3.382-1.503,3.387-3.363
								c0.006-1.861-1.503-3.383-3.366-3.389L168.057,127.709z"/>
						</g>
						<g style="opacity:0.5;">
							<path style="fill:#CF2027;" d="M184.506,133.043c2.162,0.007,3.918-1.741,3.925-3.904c0.002-0.622-0.148-1.212-0.405-1.737
								c-0.357-0.106-0.735-0.17-1.128-0.171l-18.84-0.059c-2.159-0.007-3.919,1.741-3.925,3.904
								c-0.002,0.622,0.147,1.212,0.406,1.737c0.356,0.106,0.734,0.17,1.127,0.171L184.506,133.043z"/>
						</g>
					</g>
					<g>
						<g>
							<path style="fill:#CF2027;" d="M311.646,131.159c-0.007,2.158-1.766,3.906-3.927,3.899l-18.84-0.059
								c-2.159-0.007-3.908-1.766-3.901-3.924l0,0c0.007-2.163,1.766-3.911,3.925-3.904l18.84,0.059
								C309.905,127.237,311.653,128.996,311.646,131.159L311.646,131.159z"/>
							<path style="fill:#82080C;" d="M307.717,135.595l-18.84-0.059c-2.453-0.008-4.442-2.009-4.434-4.463
								c0.008-2.455,2.009-4.444,4.462-4.436l18.84,0.059c2.455,0.008,4.444,2.009,4.436,4.464
								C312.173,133.614,310.172,135.603,307.717,135.595z M288.902,127.709c-1.86-0.006-3.38,1.506-3.386,3.367
								c-0.006,1.86,1.505,3.379,3.365,3.384l18.84,0.059c1.863,0.006,3.382-1.503,3.387-3.363c0.006-1.861-1.503-3.383-3.366-3.389
								L288.902,127.709z"/>
						</g>
						<g style="opacity:0.5;">
							<path style="fill:#CF2027;" d="M305.351,133.043c2.162,0.007,3.918-1.741,3.925-3.904c0.002-0.622-0.148-1.212-0.404-1.737
								c-0.358-0.106-0.735-0.17-1.128-0.171l-18.84-0.059c-2.159-0.007-3.919,1.741-3.925,3.904
								c-0.002,0.622,0.147,1.212,0.406,1.737c0.356,0.106,0.734,0.17,1.127,0.171L305.351,133.043z"/>
						</g>
					</g>
					<g>
						<path style="fill:#BDBEC0;" d="M55.261,177.126c0,0,8.355-26.285,42.804-26.603c12.96,0.156-5.915-6.577-26.755,2.907
							C50.468,162.918,49.023,185.224,55.261,177.126z"/>
						<path style="fill:#BDBEC0;" d="M111.771,150.858c-0.142,0.796-1.628,1.197-3.321,0.894c-1.692-0.3-2.95-1.191-2.808-1.986
							c0.144-0.796,1.631-1.197,3.321-0.894C110.657,149.17,111.915,150.063,111.771,150.858z"/>
					</g>
					<g>
						<path style="fill:#BDBEC0;" d="M25.517,188.131c-0.625-4.149-4.609-6.396-13.705-7.384c-0.754-0.081-1.454-0.09-2.113-0.053
							c-0.883,0.138-3.82,1.085-3.866,7.349c0.265-1.942,1.564-5.328,7.537-4.268c8.236,1.464,8.602,7.406,9.346,14.5
							c0.744,7.092-3.285,8.039-7.979,7.543c-4.694-0.493-6.981-4.523-7.928-7.881c-0.026-0.096-0.056-0.178-0.087-0.259
							c0.945,4.901,2.717,9.041,5.662,9.938c4.72,1.43,14.869,1.088,14.769-2.586C27.154,205.032,26.143,192.285,25.517,188.131z"/>
					</g>
					<path style="fill:#BDBEC0;" d="M8.655,187.764c0,0,0.366,12.602,6.051,14.922c3.653,1.23-4.209,2.965-6.353-4.22
						C6.207,191.281,8.531,184.377,8.655,187.764z"/>
					<g>
						<path style="fill:#B1B3B6;" d="M192.624,45.593c0.022-7.152-1.159-10.73-6.164-10.746c-5.005-0.016-32.663,1.325-41.488,2.254
							c-8.824,0.922-16.938,4.474-22.709,19.714c-5.77,15.24-13.468,37.861-17.071,46.673c-3.604,8.807-5.292,14.761,1.145,14.543
							c0,0,48.636-1.039,67.945-0.979c19.309,0.061,17.896-5.425,18.172-17.583C192.731,87.312,192.601,52.744,192.624,45.593z
							 M189.577,97.033c-0.25,10.977,1.027,15.936-16.413,15.881c-17.439-0.055-61.363,0.881-61.363,0.881
							c-5.814,0.197-4.291-5.18-1.035-13.135c3.253-7.958,10.208-28.389,15.417-42.152c5.212-13.764,12.543-16.971,20.512-17.808
							c7.969-0.836,32.948-2.048,37.468-2.034c4.522,0.014,5.588,3.249,5.568,9.706C189.71,54.832,189.827,86.051,189.577,97.033z"
							/>
					</g>
					<g>
						<g>
							<path style="fill:#C3151C;" d="M110.709,101.227c-0.253-0.1-0.522-0.163-0.806-0.177c-4.759-0.23-15.161,5.362-18.874,16.6
								c-1.312,4.216-0.031,9.518,2.014,12.338c0,0,2.368,4.445,9.395,5.115c3.238,0.309,5.643-0.18,7.403-1.71
								c0.425-3.58,1.126-10.563,1.397-19.519C111.45,106.848,111.091,103.148,110.709,101.227z"/>
							<path style="fill:#82080C;" d="M104.133,135.727L104.133,135.727c-0.547-0.002-1.133-0.032-1.746-0.09
								c-6.981-0.667-9.536-4.896-9.796-5.362c-2.053-2.85-3.476-8.286-2.074-12.783c3.624-10.967,13.604-17,19.117-16.982
								c0.101,0,0.199,0.004,0.295,0.007c0.332,0.014,0.661,0.088,0.975,0.21l0.273,0.106l0.059,0.289
								c0.364,1.838,0.756,5.549,0.538,12.768c-0.276,9.068-0.996,16.152-1.401,19.568l-0.023,0.207l-0.157,0.133
								C108.691,135.103,106.71,135.735,104.133,135.727z M109.63,101.58c-4.565-0.014-14.511,5.4-18.094,16.239
								c-1.25,4.02,0.004,9.187,1.942,11.854l0.039,0.061c0.092,0.172,2.343,4.202,8.973,4.835c3.108,0.295,5.255-0.157,6.841-1.449
								c0.41-3.471,1.102-10.419,1.369-19.26c0.202-6.735-0.124-10.34-0.46-12.222c-0.119-0.026-0.24-0.045-0.365-0.051
								C109.796,101.584,109.713,101.58,109.63,101.58z"/>
						</g>
						<g>
							<path style="fill:#C3151C;" d="M110.709,101.227c-0.253-0.1-0.522-0.163-0.806-0.177c-4.759-0.23-15.161,5.362-18.874,16.6
								c-1.312,4.216-0.031,9.518,2.014,12.338c0,0,2.368,4.445,9.395,5.115c3.238,0.309,5.643-0.18,7.403-1.71
								c0.425-3.58,1.126-10.563,1.397-19.519C111.45,106.848,111.091,103.148,110.709,101.227z"/>
							<path style="fill:#82080C;" d="M104.133,135.727L104.133,135.727c-0.547-0.002-1.133-0.032-1.746-0.09
								c-6.981-0.667-9.536-4.896-9.796-5.362c-2.053-2.85-3.476-8.286-2.074-12.783c3.624-10.967,13.604-17,19.117-16.982
								c0.101,0,0.199,0.004,0.295,0.007c0.332,0.014,0.661,0.088,0.975,0.21l0.273,0.106l0.059,0.289
								c0.364,1.838,0.756,5.549,0.538,12.768c-0.276,9.068-0.996,16.152-1.401,19.568l-0.023,0.207l-0.157,0.133
								C108.691,135.103,106.71,135.735,104.133,135.727z M109.63,101.58c-4.565-0.014-14.511,5.4-18.094,16.239
								c-1.25,4.02,0.004,9.187,1.942,11.854l0.039,0.061c0.092,0.172,2.343,4.202,8.973,4.835c3.108,0.295,5.255-0.157,6.841-1.449
								c0.41-3.471,1.102-10.419,1.369-19.26c0.202-6.735-0.124-10.34-0.46-12.222c-0.119-0.026-0.24-0.045-0.365-0.051
								C109.796,101.584,109.713,101.58,109.63,101.58z"/>
						</g>
						<g>
							<path style="fill:#C3151C;" d="M110.709,101.227c0.382,1.921,0.742,5.621,0.529,12.648
								c-0.271,8.955-0.972,15.938-1.397,19.519c2.061-1.792,3.234-5.023,3.777-10.155
								C114.559,114.295,114.651,102.772,110.709,101.227z"/>
							<path style="fill:#82080C;" d="M109.143,134.707l0.166-1.378c0.402-3.396,1.119-10.444,1.392-19.469
								c0.215-7.122-0.164-10.746-0.519-12.53l-0.192-0.964l0.914,0.359c4.877,1.913,3.893,16.421,3.246,22.567
								c-0.558,5.306-1.816,8.644-3.957,10.505L109.143,134.707z M111.447,102.411c0.281,2.117,0.503,5.657,0.327,11.478
								c-0.237,7.787-0.8,14.108-1.211,17.901c1.288-1.814,2.098-4.606,2.521-8.608C114.21,112.498,113.577,104.84,111.447,102.411z
								"/>
						</g>
					</g>
					<g>
						<path style="fill:#B1B3B6;" d="M115.336,33.928c-3.155,2.923-6.409,7.319-11.751,14.169
							c-13.888,19.233-37.616,73.092-37.616,73.092s6.745-0.166,15.334-2.046c8.588-1.88,10.502-4.498,15.541-14.73
							c5.038-10.235,18.725-41.42,22.579-54.046C122.06,41.727,118.099,36.42,115.336,33.928z M116.961,53.121
							c-3.437,11.257-15.644,39.073-20.137,48.199c-4.494,9.13-6.202,11.464-13.863,13.141c-7.659,1.676-13.675,1.824-13.675,1.824
							s21.165-48.038,33.549-65.19c4.765-6.11,7.669-10.03,10.481-12.636C115.777,40.678,119.313,45.414,116.961,53.121z"/>
					</g>
					<g>
						<path style="fill:#B1B3B6;" d="M292.81,102.17c0,0-17.749-42.013-23.197-52.521c-5.452-10.504-14.977-14.348-24.031-14.377
							c-9.061-0.028-29.087-0.33-39.098-0.123c-10.014,0.204-9.069,2.832-9.118,18.564c0,0-0.121,38.381-0.154,48.872
							c-0.033,10.489-1.232,13.582,10.684,14.338c11.917,0.751,52.44,1.832,67.934,1.88
							C291.325,118.851,300.619,120.313,292.81,102.17z M272.536,114.858c-14.124-0.044-51.051-1.029-61.913-1.716
							c-10.859-0.686-9.766-3.506-9.736-13.066c0.03-9.56,0.14-44.536,0.14-44.536c0.045-14.337-0.814-16.732,8.312-16.919
							c9.125-0.188,27.373,0.086,35.629,0.112c8.256,0.026,16.933,3.529,21.899,13.105c4.969,9.571,21.142,47.86,21.142,47.86
							C295.125,116.232,286.656,114.903,272.536,114.858z"/>
					</g>
					<g>
						<path style="fill:#D1CFCB;" d="M81.303,119.143c-8.589,1.88-15.334,2.046-15.334,2.046s-12.527,5.703-24.127,11.472
							l0.87,0.045c0,0,17.15-8.313,24.639-8.798c7.488-0.484,7.49,3.038-6.879,8.48c-21.598,8.182-28.332,10.825-31.375,10.055
							c-3.027-0.766-1.03-2.145,1.369-3.9c-3.907,2.114-6.882,3.87-9.121,5.622c2.673,1.067,6.971,2.184,11.721,1.049
							c7.872-1.882,33.02-11.966,47.256-17.254c7.638-2.837,10.039-8.789,13.163-16.885c0.091-0.235,0.169-0.468,0.239-0.697
							C90.559,115.815,87.901,117.7,81.303,119.143z"/>
					</g>
					<path style="fill:#C3151C;" d="M194.175,38.953c0,0-0.542,52.224-0.395,65.749c0.157,9.571,1.691,4.582,1.921-7.277
						C195.927,85.565,196.121,23.98,194.175,38.953z"/>
					<path style="fill:#C3151C;" d="M125.131,46.157c0,0-10.884,27.855-18.138,45.822c-4.684,12.13-7.985,12.87-2.396-0.755
						C110.19,77.596,127.718,34.769,125.131,46.157z"/>
					<path style="fill:#CF2027;" d="M331.026,124.37c0,0,10.276,1.847,12.083,4.07C344.917,130.664,320.137,124.135,331.026,124.37z
						"/>
					<g>
						<g>
							<g>
								<path style="fill:#D9221E;" d="M342.621,144.043c-0.213,10.55,2.273,15.744,5.667,17.182
									c1.949,0.829,3.662-0.119,4.776-1.918c-0.083-3.119-0.215-6.418-0.423-9.725c-0.446-7.172-1.663-12.704-3.413-16.68
									C346.728,133.988,342.765,136.842,342.621,144.043z"/>
								<path style="fill:#910707;" d="M349.684,162.066L349.684,162.066c-0.532-0.002-1.073-0.118-1.608-0.347
									c-4.057-1.723-6.186-8.006-5.993-17.686c0.152-7.559,4.408-10.527,6.933-11.623l0.489-0.215l0.215,0.489
									c1.861,4.229,3.021,9.904,3.456,16.867c0.191,3.045,0.334,6.321,0.425,9.742l0.004,0.16l-0.083,0.134
									C352.53,161.19,351.168,162.071,349.684,162.066z M348.954,133.622c-2.31,1.156-5.666,3.951-5.799,10.433
									c-0.183,9.212,1.715,15.135,5.341,16.677c0.404,0.172,0.805,0.259,1.192,0.26l0,0c1.057,0.003,2.058-0.647,2.836-1.832
									c-0.091-3.349-0.232-6.557-0.415-9.542C351.699,143.057,350.638,137.68,348.954,133.622z"/>
							</g>
						</g>
						<g style="opacity:0.5;">
							<path style="fill:#910707;" d="M352.641,149.582c-0.446-7.172-1.663-12.704-3.413-16.68c-2.5,1.086-6.463,3.939-6.607,11.141
								c-0.213,10.55,2.273,15.744,5.667,17.182c1.949,0.829,3.662-0.119,4.776-1.918
								C352.981,156.188,352.849,152.889,352.641,149.582z M351.254,157.676c-3.056,1.363-6.227-6.879-5.292-14.342
								c0.94-7.464,3.685-8.219,4.736-3.031C350.698,140.302,354.304,156.315,351.254,157.676z"/>
						</g>
						<g>
							<path style="fill:#FFFFFF;" d="M349.573,141.193c0,0,0.31,2.337,0.614,6.312c0.31,3.971,1.66,2.858,1.102-2.488
								C350.734,139.673,349.264,137.145,349.573,141.193z"/>
							<path style="fill:#FFFFFF;" d="M351.438,151.839c-0.005,0.55-0.207,0.996-0.454,0.995c-0.247-0.006-0.445-0.451-0.439-1.001
								c0.002-0.551,0.206-0.995,0.451-0.995C351.245,150.843,351.443,151.288,351.438,151.839z"/>
						</g>
					</g>
					<g>
						<g>
							<path style="fill:#C3151C;" d="M90.368,121.327c0,0-5.427,5.497-6.95,7.982c-1.52,2.482-1.213,7.784,3.331,7.907
								c4.541,0.122,7.703-8.304,9.231-12.088C97.397,121.454,93.839,117.876,90.368,121.327z"/>
							<path style="fill:#82080C;" d="M86.833,137.753L86.833,137.753l-0.1,0c-2.287-0.062-3.431-1.298-3.986-2.322
								c-1.131-2.085-0.732-4.855,0.215-6.401c1.536-2.508,6.8-7.855,7.023-8.081c1.03-1.022,2.16-1.56,3.271-1.556
								c1.126,0.004,2.158,0.571,2.831,1.552c0.834,1.223,0.981,2.858,0.393,4.379l-0.22,0.548
								C94.592,130.03,91.488,137.768,86.833,137.753z M93.252,120.465c-0.82-0.003-1.688,0.427-2.508,1.24
								c-0.05,0.052-5.396,5.481-6.868,7.885c-0.801,1.308-1.09,3.663-0.187,5.329c0.614,1.129,1.648,1.723,3.073,1.759l0.074,0
								c3.928,0.015,6.966-7.566,8.428-11.207l0.217-0.543c0.457-1.181,0.354-2.449-0.281-3.376
								C94.729,120.863,94.02,120.467,93.252,120.465z"/>
						</g>
						<g>
							<path style="fill:#D1CFCB;" d="M92.294,120.083c0.156,0.387,0.097,1.068-0.204,2.11c-0.938,3.246-5.137,9.385-7.807,9.377
								c-0.922-0.003-1.17-0.786-1.108-1.798c-1.226,2.62-0.706,7.33,3.574,7.446c4.541,0.122,7.703-8.304,9.231-12.088
								C97.133,122.145,94.998,119.218,92.294,120.083z"/>
						</g>
					</g>
					<g>
						<path style="fill:#C3151C;" d="M31.743,139.109c0,0,10.794-6.111,18.479-8.71c7.689-2.593,0.708,1.396-5.883,4.291
							C37.751,137.583,27.813,142.335,31.743,139.109z"/>
						<path style="fill:#C3151C;" d="M58.666,127.453c0.115,0.315-0.654,0.882-1.717,1.271c-1.06,0.391-2.015,0.45-2.131,0.135
							c-0.114-0.315,0.656-0.882,1.716-1.272C57.597,127.201,58.551,127.137,58.666,127.453z"/>
					</g>
					<g>
						<g>
							<path style="fill:#E63C11;" d="M353.671,178.558l-0.435-0.028l0.036-0.716c0,0,0.176,0.001,0.461,0.032L353.671,178.558z"/>
							<g>
								<path style="fill:#BDBEC0;" d="M325.417,186.9c-0.151,6.398-0.153,12.046-0.128,15.788
									c12.269-0.152,19.886-0.288,20.87-0.397c6.654-0.738,11.404,0.226,11.798-3.956c0.394-4.18,0.983-10.261,0.807-15.202
									c-0.144-4.093-3.807-4.809-5.069-4.934c-0.144-0.006-0.279-0.014-0.429-0.028
									C344.043,177.422,325.692,175.458,325.417,186.9z"/>
								<path style="fill:#727375;" d="M324.936,203.051l-0.005-0.361c-0.025-3.659-0.025-9.37,0.129-15.8
									c0.157-6.555,5.88-9.725,17.487-9.688c3.473,0.011,6.918,0.297,9.689,0.528l1.483,0.112
									c1.236,0.126,5.246,0.866,5.402,5.276c0.171,4.837-0.377,10.663-0.777,14.918l-0.03,0.334
									c-0.333,3.53-3.508,3.71-7.903,3.956c-1.267,0.074-2.702,0.156-4.213,0.321c-0.945,0.104-7.975,0.239-20.904,0.399
									L324.936,203.051z M342.544,177.916c-11.136-0.035-16.624,2.905-16.771,8.993c-0.146,6.21-0.152,11.754-0.127,15.417
									c12.674-0.156,19.56-0.289,20.471-0.391c1.53-0.169,2.979-0.249,4.254-0.321c4.695-0.263,6.966-0.514,7.227-3.311
									l0.035-0.334c0.395-4.235,0.943-10.033,0.773-14.822c-0.132-3.729-3.364-4.451-4.745-4.588l-1.487-0.117
									C349.419,178.213,345.991,177.927,342.544,177.916z"/>
							</g>
						</g>
						<g>
							<path style="fill:#BDBEC0;" d="M348.59,199.551c-9.97-0.031-17.718-2.493-16.133-13.345
								c1.199-8.207,16.677-7.755,24.161-7.042c-1.086-0.693-2.301-0.899-2.923-0.963c-0.144-0.006-0.279-0.014-0.429-0.028
								c-9.223-0.75-27.574-2.714-27.848,8.728c-0.151,6.398-0.153,12.046-0.128,15.788c12.269-0.152,19.886-0.288,20.87-0.397
								c6.654-0.738,11.404,0.226,11.798-3.956c0.109-1.176,0.238-2.508,0.355-3.921
								C357.786,196.887,355.996,199.574,348.59,199.551z"/>
						</g>
						<g>
							<path style="fill:#BDBEC0;" d="M355.333,182.514c0,0,0.985,11.227-5.146,13.248c-4.342,1.264,1.007,4.341,4.846,0.783
								C358.871,192.985,356.877,178.181,355.333,182.514z"/>
							<path style="fill:#BDBEC0;" d="M346.91,196.948c-0.001,0.487-0.795,0.878-1.768,0.875c-0.975-0.003-1.762-0.399-1.761-0.886
								c0.001-0.489,0.791-0.879,1.766-0.876C346.12,196.064,346.911,196.46,346.91,196.948z"/>
						</g>
					</g>
					<g>
						<g>
							<path style="fill:#BDBEC0;" d="M280.908,143.292c-58.852,0.424-61.876,46.791-61.472,60.579
								c44.447-0.337,88.219-0.701,117.479-1.014C337.582,180.507,321.346,143.874,280.908,143.292z"/>
							<path style="fill:#727375;" d="M219.089,204.23l-0.011-0.35c-0.243-8.286,0.755-29.179,15.202-44.158
								c10.6-10.994,26.29-16.642,46.627-16.788c15.562,0.224,29.14,5.939,39.274,16.535c13.162,13.755,17.433,31.978,17.093,43.397
								l-0.011,0.345l-0.344,0.002c-25.866,0.279-65.392,0.619-117.48,1.016L219.089,204.23z M280.904,143.648
								c-20.13,0.146-35.647,5.719-46.108,16.567c-14.061,14.584-15.214,34.874-15.013,43.298
								c51.679-0.394,90.968-0.733,116.783-1.009c0.242-11.305-4.022-29.079-16.902-42.542
								C309.665,149.512,296.263,143.871,280.904,143.648z"/>
						</g>
						<g>
							<path style="fill:#BDBEC0;" d="M330.988,176.106c6.391,14.682-5.071,20.726-10.028,4.975
								c-7.436-22.909-42.436-36.609-66.798-22.38c-24.361,14.227-18.718,38.918-25.512,38.896
								c-7.69-0.024-7.314-10.857-7.145-13.17c-1.991,8.024-2.192,15.244-2.068,19.444c44.447-0.337,88.219-0.701,117.479-1.014
								c0.237-7.941-1.663-17.687-6.023-26.979C330.926,175.956,330.953,176.027,330.988,176.106z"/>
						</g>
						<g>
							<g>
								<path style="fill:#1F1E21;" d="M318.861,198.812c-0.07,22.373-18.265,40.453-40.635,40.383
									c-22.373-0.071-40.452-18.265-40.381-40.638c0.071-22.37,18.263-40.45,40.637-40.38
									C300.851,158.247,318.931,176.441,318.861,198.812z"/>
								<path d="M278.224,239.614c-22.569-0.071-40.871-18.488-40.8-41.058c0.071-22.566,18.488-40.871,41.058-40.8
									c22.565,0.071,40.871,18.492,40.8,41.058C319.211,221.383,300.789,239.685,278.224,239.614z M278.479,158.6
									c-22.105-0.07-40.145,17.854-40.215,39.958c-0.07,22.105,17.856,40.144,39.962,40.214
									c22.105,0.07,40.141-17.857,40.211-39.961C318.507,176.706,300.584,158.67,278.479,158.6z"/>
							</g>
							<path style="opacity:0.5;fill:#4F5052;" d="M308.632,198.78c-0.053,16.725-13.652,30.239-30.374,30.186
								c-16.724-0.053-30.238-13.652-30.186-30.377c0.053-16.722,13.653-30.236,30.376-30.183
								C295.171,168.458,308.684,182.057,308.632,198.78z"/>
							<g style="opacity:0.5;">
								<path style="fill:#1B1C1E;" d="M278.481,158.177c-22.373-0.07-40.566,18.009-40.637,40.38
									c-0.07,22.373,18.008,40.567,40.381,40.638c22.371,0.07,40.565-18.009,40.635-40.383
									C318.931,176.441,300.851,158.247,278.481,158.177z M278.241,234.368c-19.709-0.062-35.635-16.09-35.573-35.796
									c0.062-19.706,16.089-35.631,35.798-35.568c19.707,0.062,35.631,16.087,35.568,35.793S297.947,234.43,278.241,234.368z"/>
							</g>
							<path style="opacity:0.5;fill:#1B1C1E;" d="M298.308,198.747c-0.035,11.024-8.996,19.93-20.018,19.895
								c-11.025-0.035-19.931-8.997-19.896-20.021c0.035-11.022,8.998-19.927,20.022-19.892
								C289.438,178.764,298.343,187.726,298.308,198.747z"/>
							<g>
								<path style="fill:#BDBEC0;" d="M295.079,198.737c-0.029,9.239-7.543,16.704-16.778,16.675
									c-9.239-0.029-16.704-7.542-16.675-16.781c0.029-9.239,7.542-16.704,16.78-16.675
									C287.642,181.986,295.108,189.498,295.079,198.737z"/>
								<path style="fill:#727375;" d="M278.299,215.835c-9.455-0.03-17.127-7.75-17.097-17.205
									c0.03-9.455,7.75-17.124,17.205-17.094c9.454,0.03,17.123,7.747,17.093,17.202
									C295.47,208.194,287.753,215.865,278.299,215.835z M278.404,182.378c-8.994-0.028-16.33,7.265-16.359,16.255
									c-0.028,8.99,7.262,16.328,16.256,16.356c8.99,0.028,16.33-7.263,16.358-16.253
									C294.688,189.746,287.394,182.407,278.404,182.378z"/>
							</g>
							<g>
								<path style="fill:#BDBEC0;" d="M278.406,181.956c-9.239-0.029-16.751,7.436-16.78,16.675
									c-0.029,9.239,7.436,16.751,16.675,16.781c9.236,0.029,16.749-7.437,16.778-16.675
									C295.108,189.498,287.642,181.986,278.406,181.956z M278.307,213.103c-7.964-0.025-14.398-6.499-14.373-14.464
									c0.025-7.962,6.499-14.396,14.464-14.37c7.962,0.025,14.396,6.5,14.37,14.461
									C292.744,206.695,286.27,213.128,278.307,213.103z"/>
							</g>
							<g>
								<path style="fill:#BDBEC0;" d="M284.858,199.367c-0.011,3.594-2.933,6.5-6.527,6.489c-3.593-0.011-6.501-2.936-6.49-6.53
									c0.011-3.595,2.938-6.497,6.531-6.486C281.965,192.851,284.869,195.771,284.858,199.367z"/>
								<path style="fill:#727375;" d="M278.329,206.275c-3.823-0.012-6.923-3.131-6.91-6.951c0.012-3.82,3.131-6.92,6.954-6.908
									c3.82,0.012,6.92,3.131,6.908,6.951C285.268,203.188,282.15,206.287,278.329,206.275z M278.37,193.261
									c-3.358-0.011-6.096,2.71-6.106,6.066c-0.011,3.355,2.71,6.096,6.068,6.106c3.355,0.011,6.095-2.713,6.105-6.068
									C284.448,196.01,281.725,193.272,278.37,193.261z"/>
							</g>
							<g>
								<path style="fill:#BDBEC0;" d="M278.371,192.84c-3.593-0.011-6.52,2.89-6.531,6.486c-0.011,3.593,2.897,6.518,6.49,6.53
									c3.594,0.011,6.516-2.895,6.527-6.489C284.869,195.771,281.965,192.851,278.371,192.84z M278.338,203.494
									c-2.29-0.007-4.143-1.87-4.136-4.161c0.007-2.29,1.872-4.139,4.162-4.132c2.288,0.007,4.139,1.868,4.132,4.158
									C282.489,201.649,280.626,203.501,278.338,203.494z"/>
							</g>
							<g>
								<path style="fill:#BDBEC0;" d="M280.731,187.717c-0.004,1.295-1.061,2.338-2.351,2.334
									c-1.294-0.004-2.339-1.054-2.335-2.349c0.004-1.294,1.056-2.339,2.35-2.335
									C279.685,185.371,280.735,186.422,280.731,187.717z"/>
								<path style="fill:#727375;" d="M278.379,190.474c-1.527-0.005-2.76-1.248-2.756-2.774c0.005-1.524,1.246-2.758,2.773-2.753
									c1.523,0.005,2.758,1.247,2.753,2.77C281.144,189.243,279.902,190.479,278.379,190.474z M278.394,185.788
									c-1.061-0.003-1.926,0.856-1.93,1.915c-0.003,1.062,0.856,1.925,1.918,1.929c1.057,0.003,1.922-0.855,1.926-1.917
									C280.311,186.657,279.451,185.792,278.394,185.788z"/>
							</g>
							<g>
								<path style="fill:#BDBEC0;" d="M268.569,199.315c-0.004,1.294-1.056,2.339-2.35,2.335c-1.294-0.004-2.339-1.056-2.335-2.35
									c0.004-1.291,1.056-2.337,2.35-2.333C267.527,196.972,268.573,198.024,268.569,199.315z"/>
								<path style="fill:#727375;" d="M266.217,202.07c-1.522-0.005-2.758-1.248-2.753-2.77c0.005-1.524,1.248-2.758,2.77-2.753
									c1.523,0.005,2.761,1.246,2.756,2.77C268.985,200.839,267.74,202.074,266.217,202.07z M266.232,197.388
									c-1.057-0.003-1.922,0.855-1.925,1.914c-0.003,1.058,0.856,1.922,1.913,1.925c1.062,0.003,1.927-0.855,1.93-1.913
									C268.153,198.255,267.293,197.391,266.232,197.388z"/>
							</g>
							<g>
								<path style="fill:#BDBEC0;" d="M292.482,199.391c-0.004,1.294-1.057,2.339-2.352,2.335c-1.293-0.004-2.338-1.056-2.334-2.35
									c0.004-1.291,1.056-2.337,2.349-2.333C291.439,197.047,292.486,198.099,292.482,199.391z"/>
								<path style="fill:#727375;" d="M290.129,202.145c-1.523-0.005-2.756-1.248-2.751-2.77c0.005-1.524,1.246-2.758,2.769-2.753
									c1.527,0.005,2.762,1.246,2.757,2.77C292.899,200.914,291.656,202.15,290.129,202.145z M290.144,197.464
									c-1.057-0.003-1.922,0.855-1.926,1.914c-0.003,1.058,0.856,1.922,1.914,1.925c1.061,0.003,1.926-0.855,1.93-1.913
									C292.065,198.331,291.205,197.467,290.144,197.464z"/>
							</g>
							<g>
								<path style="fill:#BDBEC0;" d="M280.659,210.443c-0.004,1.294-1.061,2.339-2.35,2.335c-1.294-0.004-2.339-1.056-2.335-2.35
									c0.004-1.294,1.056-2.339,2.35-2.335C279.613,208.097,280.663,209.149,280.659,210.443z"/>
								<path style="fill:#727375;" d="M278.307,213.2c-1.527-0.005-2.761-1.25-2.756-2.773c0.005-1.524,1.246-2.758,2.773-2.753
									c1.523,0.005,2.758,1.246,2.753,2.77C281.073,211.967,279.83,213.205,278.307,213.2z M278.322,208.516
									c-1.061-0.003-1.926,0.855-1.93,1.914c-0.003,1.062,0.856,1.925,1.918,1.929c1.057,0.003,1.922-0.855,1.926-1.917
									C280.239,209.383,279.379,208.519,278.322,208.516z"/>
							</g>
						</g>
						<g>
							<path style="fill:#BDBEC0;" d="M232.876,175.41c0,0,8.401-26.268,42.85-26.526c12.959,0.175-5.907-6.592-26.76,2.861
								C228.109,161.195,226.623,183.499,232.876,175.41z"/>
							<path style="fill:#BDBEC0;" d="M289.432,149.242c-0.143,0.794-1.633,1.193-3.324,0.887c-1.69-0.303-2.948-1.195-2.806-1.991
								c0.145-0.799,1.636-1.197,3.326-0.89C288.32,147.551,289.576,148.442,289.432,149.242z"/>
						</g>
					</g>
				</g>
			</g>
			<path style="fill:#D1CFCB;" d="M195.385,196.351L195.385,196.351c-0.968,0-1.761-0.792-1.761-1.761v-67.387
				c0-0.969,0.792-1.761,1.761-1.761l0,0c0.969,0,1.761,0.792,1.761,1.761v67.387C197.147,195.559,196.354,196.351,195.385,196.351z
				"/>
			<g>
				<path style="fill:#C3151C;" d="M105.747,105.862c-1.328-0.781-3.055-0.411-4.337,0.28c-0.695,0.375-1.343,0.854-1.862,1.452
					c-0.234,0.269-0.482,0.595-0.649,0.946c-0.579,0.578-1.089,1.23-1.446,1.956c-0.49,0.995-0.664,2.122-0.133,3.142
					c0.425,0.818,1.242,1.163,2.138,1.064c1.055-0.117,2.037-0.658,2.908-1.235c0.874-0.579,1.691-1.26,2.428-2.005
					C106.114,110.132,108.044,107.214,105.747,105.862z"/>
				<path style="fill:#C3151C;" d="M107.775,113.055c-0.531-0.313-1.222-0.164-1.735,0.112c-0.278,0.15-0.537,0.342-0.745,0.581
					c-0.093,0.108-0.193,0.238-0.259,0.378c-0.232,0.231-0.436,0.492-0.578,0.782c-0.196,0.398-0.265,0.849-0.053,1.257
					c0.17,0.327,0.497,0.465,0.855,0.426c0.422-0.047,0.815-0.263,1.163-0.494c0.35-0.232,0.676-0.504,0.971-0.802
					C107.922,114.763,108.694,113.596,107.775,113.055z"/>
			</g>
			<path style="fill:#C3151C;" d="M279.231,51.085c-0.281-2.977-1.06-5.957-2.071-8.766c-0.864-2.398-2.311-4.592-4.329-6.172
				c-1.082-0.847-2.279-1.671-3.573-2.153c-0.618-0.23-1.3-0.404-1.956-0.237c-0.579,0.147-1.001,0.566-1.203,1.107
				c-0.271,0.361-0.361,0.826-0.374,1.275c-0.04,1.453,0.503,2.948,1.014,4.287c0.615,1.608,1.46,3.104,2.253,4.628
				c1.382,2.653,2.787,5.296,4.351,7.848c0.861,1.405,2.11,3.956,4.14,3.775c0.835-0.075,1.403-0.703,1.65-1.466
				c0.185-0.571,0.196-1.191,0.201-1.786C279.341,52.644,279.305,51.863,279.231,51.085z"/>
			<path style="fill:#FFFFFF;" d="M147.294,28.796c-1.639-0.283-3.37-0.26-5.035-0.234c-1.498,0.024-3.02,0.037-4.516,0.12
				c-1.297,0.072-2.536,0.37-3.82,0.496c-1.118,0.109-2.277,0.167-3.34,0.502c-0.302,0.095-0.591,0.232-0.845,0.402
				c-0.761,0.064-1.517,0.172-2.201,0.453c-0.516,0.212-1.63,0.831-1.176,1.431c0.366,0.484,1.393,0.544,1.996,0.599
				c3.884,0.357,7.839-0.043,11.699-0.449c1.777-0.187,3.557-0.395,5.309-0.711c0.732-0.132,1.461-0.284,2.167-0.496
				c0.463-0.139,0.99-0.314,1.319-0.636C149.719,29.427,148.005,28.919,147.294,28.796z"/>
			<path style="fill:#FFFFFF;" d="M156.554,28.479c-0.343-0.059-0.705-0.054-1.053-0.049c-0.313,0.005-0.632,0.008-0.945,0.025
				c-0.271,0.015-0.531,0.077-0.799,0.104c-0.234,0.023-0.476,0.035-0.699,0.105c-0.063,0.02-0.124,0.049-0.177,0.084
				c-0.159,0.013-0.317,0.036-0.46,0.095c-0.108,0.044-0.341,0.174-0.246,0.3c0.077,0.101,0.292,0.114,0.418,0.125
				c0.812,0.075,1.64-0.009,2.448-0.094c0.372-0.039,0.744-0.083,1.111-0.149c0.153-0.028,0.306-0.059,0.454-0.104
				c0.097-0.029,0.207-0.066,0.276-0.133C157.061,28.611,156.702,28.505,156.554,28.479z"/>
		</g>
	</g>
</g>
</svg>
